<?xml version="1.0" encoding="utf-8"?>
<!-- Generator: Adobe Illustrator 19.0.0, SVG Export Plug-In . SVG Version: 6.00 Build 0)  -->
<svg version="1.1" id="Layer_1" xmlns="http://www.w3.org/2000/svg" xmlns:xlink="http://www.w3.org/1999/xlink" x="0px" y="0px"
	 viewBox="-219 225.5 200 31.5" style="enable-background:new -219 225.5 200 31.5;" xml:space="preserve">
<style type="text/css">
	.st0{fill:#FFFFF8;stroke:#CCCCCC;stroke-width:0.5;stroke-miterlimit:10;}
	.st1{fill:#FF66E2;stroke:#000000;stroke-width:0.25;stroke-miterlimit:10;}
</style>
<path id="XMLID_65_" class="st0" d="M-196.7,238.9c-1.3,1.4-2.5,2.6-3.5,3.9c-0.6,0.8-1,0.5-1.5,0c-1.1-1.2-2.2-2.4-3.4-3.8
	c0,0.6,0,0.9,0,1.3c0,3.3,0,6.6,0,9.9c0,0.6-0.1,0.9-0.8,0.9c-3.3,0-6.5,0-9.8,0c-0.7-0.1-0.8-0.3-0.8-0.8c0-7.7,0-15.2,0-22.9
	c0-0.6,0.2-0.7,0.8-0.7c3.2,0,6.4,0,9.7,0c0.5,0,0.8,0.2,1.1,0.5c1.1,1.3,2.3,2.5,3.4,3.8c0.4,0.5,0.6,0.5,1,0
	c1.1-1.3,2.3-2.5,3.5-3.8c0.4-0.4,0.8-0.6,1.3-0.6c3.1,0,6.2,0,9.3,0c0.7,0,0.9,0.2,0.9,0.9c0,7.5,0,15,0,22.5c0,0.8-0.3,0.9-1,0.9
	c-3.1,0-6.2,0-9.3,0c-0.8,0-1-0.2-1-1C-196.6,246.4-196.7,242.7-196.7,238.9z"/>
<path id="XMLID_64_" class="st0" d="M-167.6,247.7c-1,1-1.8,1.9-2.9,2.5c-2.5,1.3-5.1,1.4-7.6,0.1c-2.1-1-3.2-2.9-3.3-5.2
	c-0.1-4.1-0.2-8.2,0-12.4c0-0.8,0.2-1,1-1c2.6,0,5.2,0,7.8,0c0.7,0,0.9,0.2,0.9,0.9c0,3,0,6,0,9c0,0.5,0,1.1,0.2,1.6
	c0.3,1,1.1,1.5,2.1,1.3c1-0.1,1.5-0.7,1.5-1.8c0-3.3,0-6.6,0-9.9c0-0.9,0.3-1.1,1.2-1.1c2.7,0,5.5,0,8.2,0c0.7,0,0.9,0.2,0.9,0.9
	c0,5.8,0,11.6,0,17.4c0,0.7-0.1,1-0.9,0.9c-2.7,0-5.4,0-8,0c-0.7,0-1-0.2-0.9-0.9C-167.6,249.3-167.6,248.6-167.6,247.7z"/>
<path id="XMLID_63_" class="st1" d="M-100,232.5c-0.1-0.2-0.3-0.3-0.1-0.7c0.9-1.5,1.7-3.2,2.9-4.5c1.7-1.7,3.2-1.9,5.2-0.4
	c2.2,1.6,3.7,3.8,5.2,6.1c0.1,0.2,0.2,0.5,0.5,0.5c0.7-1.6,1.2-3.2,1.2-5c0-0.3-0.1-0.7,0.3-0.9c0.3-0.2,0.6,0.1,0.9,0.3
	c0.9,0.5,1.2,1.2,0.9,2.2c-0.5,1.7-1,3.5-1.6,5.1c-0.2,0.6-0.2,1,0.1,1.5c2.1,4.1,3.9,8.2,5.4,12.7c0.8-1.3,1.5-2.5,2.3-3.7
	c3.4-5.4,6.9-10.7,11.1-15.6c0.8-0.9,1.1-2.1,1.8-3.2c0.8-1.4,1.4-1.6,2.9-0.7c0.6,0.4,1.3,0.9,1.9,1.3c0.2,0.1,0.4,0.3,0.4,0.6
	c-0.1,0.3-0.4,0.3-0.6,0.3c-1.6-0.3-2.3,0.7-2.9,1.9c-2.9,5.6-4.4,11.5-5.2,17.7c-0.1,0.7-0.3,1.4-0.1,2.3c0.4-0.8,0.7-1.5,1.1-2.1
	c0.1-0.2,0.4-0.6,0.8-0.4c0.3,0.2,0.3,0.5,0.2,0.9c-0.8,2-1.3,4.2-1.7,6.4c-0.2,1.3-0.8,1.5-2,0.9c-2.1-1.1-2.3-1.7-1.7-4.7
	c1-5.2,2-10.4,3.3-15.5c0,0,0-0.1,0-0.3c-0.4,0.2-0.6,0.6-0.9,0.9c-3.5,4.8-6.6,9.9-9.4,15.1c-0.2,0.4-0.3,0.7-0.2,1.3
	c0.5,1.6-0.2,3.2-1.7,4c-0.2,0.1-0.4,0.2-0.7,0c-1-0.7-1.4-2.5-1-3.7c0.1-0.2,0.1-0.5,0-0.7c-1.2-4.2-2.9-8.1-4.9-12
	c-1.3,3-2.6,5.9-3.9,8.7c-0.1,0.2-0.1,0.4-0.3,0.6c-0.6,0.8-0.7,1.6,0.2,2.3c0.2,0.2,0.3,0.5,0.5,0.7c0.4,0.7,0.1,1-0.5,1.1
	c-1.8,0.2-3.3,1-4.2,2.7c-0.2,0.3-0.5,0.4-0.8,0.3c-0.9-0.3-1.6-0.9-2.2-1.6c-0.3-0.3-0.1-0.6,0.2-0.8c0.4-0.3,0.8-0.7,1.3-1
	c1.5-0.9,2.6-2.2,3.4-3.8c1.9-3.6,3.6-7.2,4.9-11.1c0.1-0.4,0.2-0.7,0-1c-1.4-3-3.2-5.7-6.2-7.5c-1.1-0.7-2-0.6-3,0.3
	c-0.6,0.5-1.2,1.1-1.7,1.8C-99,232.3-99.4,232.5-100,232.5L-100,232.5z"/>
<path id="XMLID_62_" class="st0" d="M-100,232.5c0,2.5-0.1,5,0,7.4c0,0.8-0.1,1.1-0.9,0.7c-1.8-0.9-3.8-1.1-5.8-1
	c-0.3,0-0.7,0.1-1.1,0.2c-0.6,0.2-1.1,0.7-1,1.4c0,0.7,0.4,1.2,1.1,1.4c1.7,0.5,3.4,0.4,5.1,0.1c0.7-0.1,1.4-0.3,2-0.6
	c0.4-0.1,0.6-0.2,0.6,0.3c0,2.3,0,4.6,0,6.9c0,0.7-0.2,1-0.9,1.2c-3.9,0.7-7.8,1-11.7-0.3c-6.6-2.4-8.7-10.1-4.1-15.3
	c2.1-2.4,4.9-3.5,8.1-3.6C-105.7,231.2-102.8,231.7-100,232.5L-100,232.5z"/>
<path id="XMLID_61_" class="st0" d="M-153.3,243.7c1.6,1.8,3.4,3,5.9,2.8c0.8,0,1.4-0.3,1.6-1.1c0.2-0.8-0.3-1.3-1-1.6
	c-1.4-0.5-3-1-4.4-1.5c-1.8-0.7-3-2-3.4-3.9c-0.5-2.1,0.2-3.8,1.8-5.1c1.5-1.2,3.4-1.7,5.3-1.8c3.5-0.3,7-0.1,10.4,1.1
	c0.8,0.3,0.9,0.6,0.5,1.3c-0.6,1-1.1,2.2-1.6,3.3c-0.2,0.5-0.5,0.7-1,0.2c-1.1-0.9-2.5-1.6-4.1-1.6c-0.7,0-1.4,0.1-1.6,0.9
	c-0.2,0.9,0.4,1.4,1.1,1.6c1.4,0.4,2.9,0.8,4.4,1.3c1.9,0.7,3.2,2,3.6,4c0.5,2.8-0.6,5.1-3.4,6.4c-2.5,1.3-5.1,1.2-7.7,1
	c-2.8-0.2-5.5-0.9-8.1-1.8c-0.6-0.2-0.6-0.4-0.4-0.9C-154.6,246.9-154,245.3-153.3,243.7z"/>
<path id="XMLID_60_" class="st0" d="M-132.7,231.8c2.7,1.1,5.4,1.2,8.2,0.6c0.1,0,0.2,0,0.3-0.1c0.5,0,1.2-0.8,1.5-0.4
	c0.4,0.4,0.2,1.2,0.2,1.8c0,5.4,0,10.8,0,16.2c0,0.8-0.1,1.1-1.1,1.1c-2.8,0-5.6,0-8.3,0c-0.5,0-0.9,0-0.9-0.7c0-6,0-12.1,0-18.1
	C-132.8,232.1-132.8,232-132.7,231.8z"/>
<path id="XMLID_59_" class="st1" d="M-60.3,244c-0.4,0-0.5,0.5-0.9,0.5c-0.2-0.3,0-0.5,0.2-0.6c0.9-1.2,1.4-2.7,2.2-4.1
	c0.7-1.2,2-1.3,3-0.3c0.3,0.3,0.1,0.5,0,0.8c-2.3,4.1-3.6,8.5-3.8,13.3c0,0.3-0.2,0.7,0.2,0.9c0.3,0.1,0.6-0.2,0.8-0.4
	c1-0.9,1.8-2.1,2.6-3.2c2.3-3.5,4.7-6.9,6.5-10.8c0.9-1.9,1.6-1.7,3.2-0.7c0.3,0.2,0.3,0.4,0.1,0.8c-2,3.5-3.2,7.4-4.1,11.5
	c0.7-0.3,0.7-0.9,1-1.4c0.1-0.2,0.3-0.6,0.6-0.4c0.3,0.1,0.2,0.4,0.1,0.7c-0.7,1.6-1.4,3.3-1.9,5c-0.2,0.7-0.5,0.8-1.2,0.5
	c-1.5-0.7-1.8-1.3-1.3-3c0.4-1.9,0.8-3.8,1.4-5.6c0-0.2,0.1-0.5,0.1-1c-1,1.6-1.9,2.9-2.7,4.2c-1.1,1.6-2.3,3.2-3.5,4.7
	c-1,1.2-1.6,1.2-3.5,0.4c-1.1-0.5-1-1.3-0.9-2.3c0.3-3.1,0.9-6.1,1.9-9c0-0.1,0-0.2,0-0.2C-60.2,243.9-60.2,244-60.3,244z"/>
<path id="XMLID_58_" class="st1" d="M-30.6,240.3c-0.7,0.1-1.2-0.1-1.8-0.2c-0.3,0-0.6-0.1-0.6-0.5c0-0.3,0-0.6,0.4-0.6
	c0,0,0.1-0.1,0.2-0.1c2.4-0.2,3.1-1.9,3.7-3.9c0.5-2,1.3-4,2.3-5.9c1-2,3.1-2.2,4.7-0.6c0.1,0.1,0.2,0.3,0.2,0.5s-0.2,0.2-0.4,0.2
	c-1-0.1-1.6,0.5-2.1,1.2c-1.2,1.7-1.9,3.7-2.6,5.6c-0.1,0.3-0.2,0.7-0.3,1c-0.5,1.4-0.3,1.8,1.2,1.6c0.7,0,1.4-0.1,2.1-0.2
	c0.4,0,0.8,0,0.8,0.5c0.1,0.6-0.4,0.8-0.8,0.8c-1.1,0-2.3,0.2-3.4,0.2c-0.7,0-1.1,0.2-1.3,0.9c-1.3,4-2.3,7.9-2.9,12.1
	c0,0.4,0,0.8,0.3,1s0.6-0.1,0.9-0.3c0.9-0.7,1.7-1.5,2.6-2.3c0.3-0.2,0.6-0.7,1-0.3c0.3,0.3,0,0.7-0.2,1c-1.1,1.3-2.1,2.7-3.4,3.8
	c-0.7,0.6-1.3,0.6-2,0.1c-1.8-1.1-1.8-1.1-1.4-3.2C-32.9,248.6-31.8,244.5-30.6,240.3z"/>
<path id="XMLID_57_" class="st1" d="M-44.4,256.1c-0.9-0.1-2.1-0.3-3.3-0.5c-0.3,0-0.7-0.2-0.7-0.6c0-0.5,0.4-0.6,0.8-0.7
	c1.2-0.1,2.4-0.4,3.6-0.4c2.7,0,3.4-1.7,2.8-4c-0.4-1.6-1-3.2-1.6-4.8c-1.4-3.9-0.6-5.6,3.4-6.6c0.2,0,0.3-0.1,0.5-0.1
	c0.2,0,0.5-0.2,0.7,0.1c0.1,0.3-0.1,0.5-0.4,0.7s-0.6,0.3-1,0.5c-1.2,0.8-1.4,1.7-0.9,3.5c0.6,2.4,1.6,4.6,2,7c0.2,1.7-0.4,3-2,3.8
	c-0.3,0.2-0.7,0.2-1,0.6C-42.2,256.1-42.3,256.2-44.4,256.1z"/>
<path id="XMLID_56_" class="st0" d="M-125.5,231.8c-1.6,0-3-1.3-3-2.8s1.2-2.7,2.9-2.8c1.7,0,3,1.2,3,2.8
	C-122.5,230.4-123.9,231.8-125.5,231.8z"/>
<path id="XMLID_55_" class="st1" d="M-34.8,239c-0.1,0.8-0.3,1.8-0.6,2.7c-0.2,1-1.1,1.1-2,1.3c-0.5,0.1-0.4-0.4-0.4-0.7
	c0.1-1.2,0.5-2.4,0.5-3.7c0-0.4,1.4-1.2,1.9-1.1C-34.6,237.7-34.8,238.3-34.8,239z"/>
<path id="XMLID_54_" class="st1" d="M-60.3,244c0.1,0,0.1,0,0.2-0.1c0,0.1,0,0.2,0,0.2C-60.2,244.1-60.2,244.1-60.3,244z"/>
</svg>
